# xmcd
#
# Track frame offsets: 
#        150
#        13723
#        31644
#        54424
#        79292
#        102899
#        118351
#        139754
#        155761
#        180747
#        200739
#
# Disc length: 2927 seconds
#
# Revision: 0
# Processed by: cddbd v1.5.2PL0 Copyright (c) Steve Scherf et al.
# Submitted via: ExactAudioCopyFreeDBPlugin 1.0
#
DISCID=950b6d0b
DTITLE=The Jimmys - Gimme The Jimmys
DYEAR=1900
DGENRE=
TTITLE0=Hadaya Hadaya
TTITLE1=Girl All Woman
TTITLE2=Hell or Heaven
TTITLE3=Jimmys Groove
TTITLE4=She Don't Love Me
TTITLE5=Love will Find a Way
TTITLE6=Baby's so Fine
TTITLE7=JiMo Boogie
TTITLE8=All I Ask
TTITLE9=The Tree
TTITLE10=Hell or Heaven Reprise
EXTD=
EXTT0=
EXTT1=
EXTT2=
EXTT3=
EXTT4=
EXTT5=
EXTT6=
EXTT7=
EXTT8=
EXTT9=
EXTT10=
PLAYORDER=
